<?xml version="1.0" encoding="UTF-8"?>
<svg width="145px" height="145px" viewBox="0 0 145 145" version="1.1" xmlns="http://www.w3.org/2000/svg" xmlns:xlink="http://www.w3.org/1999/xlink">
    <!-- Generator: Sketch 57.1 (83088) - https://sketch.com -->
    <title>ic_connection</title>
    <desc>Created with Sketch.</desc>
    <g id="Page-1" stroke="none" stroke-width="1" fill="none" fill-rule="evenodd">
        <g id="ic_connection">
            <path d="M76.0666217,48.9826127 C76.8146217,48.0376127 77.5746217,47.1016127 78.3496217,46.1756127 C78.5196217,45.9696127 78.5946217,46.0146127 78.4286217,46.2316127 C77.6266217,47.2856127 76.8546217,48.3606127 76.1026217,49.4516127 L75.5056217,50.3616127 C75.1636217,50.8706127 74.8506217,51.3986127 74.5196217,51.9146127 L73.8616217,52.9506127 C73.4126217,53.6686127 72.9746217,54.3936127 72.5356217,55.1186127 L71.9926217,56.0076127 C71.4206217,56.9726127 70.8646217,57.9476127 70.3256217,58.9296127 L69.8056217,59.8946127 C68.5196217,62.2816127 67.2976217,64.7016127 66.1406217,67.1536127 C62.6966217,74.4526127 59.9146217,82.0786127 57.9536217,89.9106127 C57.4066217,92.0966127 56.9176217,94.2946127 56.4986217,96.5086127 C55.9336217,99.4826127 55.4876217,102.479613 55.1676217,105.487613 C54.8396217,108.582613 54.8736217,111.826613 55.8376217,114.812613 C56.1446217,115.766613 56.5626217,116.660613 57.0466217,117.517613 C57.2746217,117.925613 57.6406217,117.784613 57.4946217,117.360613 C56.6466217,114.878613 56.3826217,112.078613 56.8846217,109.706613 C57.3156217,107.670613 58.3196217,105.818613 59.4266217,104.074613 C59.6676217,103.754613 59.9586217,103.455613 60.2186217,103.117613 C60.5496217,102.728613 60.8726217,102.314613 61.2596217,101.943613 C61.6316217,101.558613 62.0096217,101.172613 62.3886217,100.782613 C63.2056217,100.067613 63.9866217,99.3076127 64.8126217,98.7016127 C65.2246217,98.4006127 65.5836217,98.0426127 65.9786217,97.7946127 C66.3646217,97.5326127 66.7226217,97.2666127 67.0566217,97.0206127 C67.7166217,96.5216127 68.3406217,96.1726127 68.7336217,95.8796127 C68.8626217,95.7856127 68.9736217,95.7076127 69.0656217,95.6426127 C69.2586217,95.5026127 69.2466217,95.4656127 69.0306217,95.5346127 C68.9196217,95.5706127 68.7836217,95.6116127 68.6246217,95.6636127 C68.1636217,95.8376127 67.4856217,96.0156127 66.7266217,96.4026127 C66.3436217,96.5876127 65.9266217,96.7916127 65.4926217,97.0226127 C65.0436217,97.2336127 64.6306217,97.5376127 64.1816217,97.8286127 C64.0356217,97.9316127 63.8836217,98.0266127 63.7316217,98.1296127 C63.6626217,98.1746127 63.6276217,98.1316127 63.6786217,98.0666127 C64.7576217,96.6576127 65.8496217,95.2606127 66.9286217,93.8516127 C68.0096217,92.4296127 69.0676217,90.9906127 70.0916217,89.5256127 C73.5516217,84.9886127 76.6206217,77.4046127 80.0636217,73.3216127 C80.1486217,73.2196127 80.1646217,73.1316127 79.9726217,73.2556127 C79.1696217,73.7746127 77.1416217,75.0626127 75.3996217,76.3406127 C73.8926217,77.4546127 72.6486217,78.5836127 72.1796217,78.9666127 C72.0746217,79.0546127 72.0706217,78.9796127 72.1306217,78.8956127 C72.8026217,77.9676127 75.0196217,75.4266127 79.4596217,71.3356127 C80.4996217,70.3756127 81.4176217,69.1866127 81.9646217,67.8586127 C82.0296217,67.7016127 81.9856217,67.6426127 81.8946217,67.7666127 C80.8436217,69.1596127 79.2736217,70.0946127 77.7376217,70.8686127 C77.6316217,70.9226127 77.5976217,70.8906127 77.6886217,70.8186127 C81.1606217,68.0746127 83.6026217,63.5606127 85.3816217,59.0776127 C87.3536217,54.1056127 88.8096217,48.8676127 90.0916217,43.6816127 C90.6156217,41.5656127 91.1006217,39.4436127 91.5316217,37.3066127 C91.8546217,35.7106127 92.1496217,34.1106127 92.4036217,32.5006127 C92.4406217,32.2816127 92.4676217,32.0216127 92.4876217,31.7406127 C92.4986217,31.5406127 92.3306217,31.3826127 92.0896217,31.5416127 C91.7056217,31.7966127 91.1426217,32.0676127 90.7776217,32.2326127 C90.5636217,32.3286127 90.6316217,32.2496127 90.7386217,32.1686127 C91.3806217,31.6826127 92.0086217,30.9466127 92.2326217,30.2136127 C92.4686217,29.4266127 91.9256217,28.4766127 91.2116217,28.1826127 C89.8546217,27.6236127 88.1736217,28.4556127 87.0726217,29.2286127 C86.7336217,29.4656127 86.4066217,29.7336127 86.1056217,30.0166127 C85.5896217,30.5006127 85.1466217,31.0446127 84.7586217,31.6346127 C84.7356217,31.6706127 84.7226217,31.7106127 84.7266217,31.6256127 C84.7386217,31.3936127 84.7936217,30.8956127 85.0606217,30.4206127 C85.0856217,30.3736127 85.0606217,30.3276127 85.0176217,30.3526127 C83.1586217,31.4166127 81.3186217,32.5446127 79.5526217,33.7966127 C77.4916217,35.2566127 75.4716217,36.7876127 73.6116217,38.4986127 C73.0856217,38.9846127 72.5706217,39.4816127 72.0706217,39.9976127 C71.7196217,40.3616127 71.3776217,40.7336127 71.0436217,41.1126127 C70.8746217,41.3066127 70.7056217,41.5026127 70.5396217,41.6986127 C70.4016217,41.8636127 70.1056217,42.1076127 70.0376217,42.3106127 C70.3496217,41.3856127 70.4756217,40.3826127 70.2596217,39.4256127 C70.1686217,39.0266127 70.0796217,39.2556127 70.0706217,39.4326127 C69.9446217,41.6516127 68.6486217,43.7166127 67.6356217,45.6306127 C67.3436217,46.1826127 67.0556217,46.7366127 66.7946217,47.3046127 C66.1096217,48.7916127 65.4996217,50.3286127 65.1326217,51.9296127 C65.0966217,52.0846127 65.0556217,52.2036127 65.0176217,52.1806127 C64.9966217,52.1666127 64.9766217,52.1086127 64.9596217,51.9846127 C64.9136217,51.6346127 64.9356217,51.2716127 64.9466217,50.9196127 C64.9726217,50.0796127 65.0546217,49.2606127 65.2346217,48.4386127 C65.3226217,48.0326127 65.4386217,47.6346127 65.5866217,47.2466127 C65.6256217,47.1446127 65.5646217,47.1216127 65.4936217,47.2106127 C64.4396217,48.5186127 63.4286217,49.8576127 62.4966217,51.2496127 C58.5326217,57.1786127 55.6466217,63.8496127 53.9146217,70.7626127 C53.4066217,72.7846127 53.0156217,74.8356127 52.8176217,76.9136127 C52.6986217,78.1606127 52.6586217,79.9566127 53.7406217,80.8376127 C53.7816217,80.8706127 53.8136217,80.9116127 53.7236217,80.8706127 C53.4426217,80.7346127 52.8246217,80.4006127 52.5126217,79.9246127 C52.4956217,79.9006127 52.4566217,79.9156127 52.4536217,79.9486127 C51.9256217,84.7756127 51.8496217,89.6406127 52.2726217,94.5376127 C52.4826217,96.9696127 52.7836217,99.3916127 53.1516217,101.807613 C53.3156217,102.871613 53.5446217,103.929613 53.7626217,104.984613 C53.9246217,105.764613 54.0776217,105.735613 54.1376217,104.934613 C54.2216217,103.810613 54.4236217,102.681613 54.5796217,101.581613 C54.8716217,99.5296127 55.1836217,97.4776127 55.5386217,95.4356127 C56.6966217,88.7666127 58.4216217,82.1646127 60.8516217,75.8456127 C63.1696217,69.8096127 66.0226217,63.9276127 69.4296217,58.4266127 L70.0146217,57.5376127 C70.5676217,56.6726127 71.1226217,55.8096127 71.7066217,54.9636127 L72.3056217,54.1236127 C72.7876217,53.4386127 73.2636217,52.7536127 73.7586217,52.0796127 L74.4406217,51.1546127 C74.7766217,50.7086127 75.0916217,50.2446127 75.4356217,49.8046127 L76.0666217,48.9826127 Z" id="Path" fill="#000000" fill-rule="nonzero" transform="translate(72.244066, 72.880468) rotate(27.000000) translate(-72.244066, -72.880468) "></path>
        </g>
    </g>
</svg>