<?xml version="1.0" encoding="UTF-8"?>
<svg width="145px" height="145px" viewBox="0 0 145 145" version="1.1" xmlns="http://www.w3.org/2000/svg" xmlns:xlink="http://www.w3.org/1999/xlink">
    <!-- Generator: Sketch 57.1 (83088) - https://sketch.com -->
    <title>ic_community</title>
    <desc>Created with Sketch.</desc>
    <g id="Page-1" stroke="none" stroke-width="1" fill="none" fill-rule="evenodd">
        <g id="ic_community">
            <g id="Group" transform="translate(35.000000, 36.000000)" fill="#000000" fill-rule="nonzero">
                <path d="M48.046875,68.8374126 C48.75,68.1490385 48.75,67.1164773 48.046875,66.4281031 L39.4921875,58.0528846 C41.484375,57.2497815 42.890625,55.2993881 42.890625,53.1195367 C42.890625,50.1365822 40.4296875,47.7272727 37.3828125,47.7272727 C34.3359375,47.7272727 31.875,50.1365822 31.875,53.1195367 C31.875,55.4141171 33.28125,57.2497815 35.2734375,58.0528846 L26.953125,66.4281031 C26.25,67.1164773 26.25,68.1490385 26.953125,68.8374126 C27.65625,69.5257867 28.7109375,69.5257867 29.4140625,68.8374126 L33.6328125,64.7071678 L33.6328125,73.4265734 L41.3671875,73.4265734 L41.3671875,64.7071678 L45.5859375,68.8374126 C46.2890625,69.5257867 47.34375,69.5257867 48.046875,68.8374126 Z" id="Path"></path>
                <path d="M48.046875,4.58916084 C47.34375,3.90078671 46.2890625,3.90078671 45.5859375,4.58916084 L41.3671875,8.71940559 L41.3671875,-1.24344979e-14 L33.6328125,-1.24344979e-14 L33.6328125,8.71940559 L29.4140625,4.58916084 C28.7109375,3.90078671 27.65625,3.90078671 26.953125,4.58916084 C26.25,5.27753497 26.25,6.31009615 26.953125,6.99847028 L35.5078125,15.3736888 C33.515625,16.176792 32.109375,18.1271853 32.109375,20.3070367 C32.109375,23.2899913 34.5703125,25.6993007 37.6171875,25.6993007 C40.6640625,25.6993007 43.125,23.2899913 43.125,20.3070367 C43.125,18.0124563 41.71875,16.176792 39.7265625,15.3736888 L48.046875,6.99847028 C48.75,6.31009615 48.75,5.27753497 48.046875,4.58916084 Z" id="Path"></path>
                <path d="M13.7109375,65.395542 L20.0390625,59.2001748 L20.0390625,65.0513549 C20.0390625,65.9691871 20.859375,66.7722902 21.796875,66.7722902 C22.734375,66.7722902 23.5546875,65.9691871 23.5546875,65.0513549 L23.5546875,53.2342657 C25.546875,54.0373689 27.890625,53.6931818 29.53125,52.0869755 C31.640625,50.0218531 31.640625,46.5799825 29.53125,44.5148601 C27.421875,42.4497378 23.90625,42.4497378 21.796875,44.5148601 C20.15625,46.1210664 19.8046875,48.4156469 20.625,50.3660402 L8.5546875,50.3660402 C7.6171875,50.3660402 6.796875,51.1691434 6.796875,52.0869755 C6.796875,53.0048077 7.6171875,53.8079108 8.5546875,53.8079108 L14.53125,53.8079108 L8.203125,60.003278 L13.7109375,65.395542 Z" id="Path"></path>
                <path d="M61.2890625,8.03103147 L54.9609375,14.2263986 L54.9609375,8.37521853 C54.9609375,7.45738636 54.140625,6.65428322 53.203125,6.65428322 C52.265625,6.65428322 51.4453125,7.45738636 51.4453125,8.37521853 L51.4453125,20.1923077 C49.453125,19.3892045 47.109375,19.7333916 45.46875,21.3395979 C43.359375,23.4047203 43.359375,26.8465909 45.46875,28.9117133 C47.578125,30.9768357 51.09375,30.9768357 53.203125,28.9117133 C54.84375,27.305507 55.1953125,25.0109266 54.375,23.0605332 L66.4453125,23.0605332 C67.3828125,23.0605332 68.203125,22.2574301 68.203125,21.3395979 C68.203125,20.4217657 67.3828125,19.6186626 66.4453125,19.6186626 L60.46875,19.6186626 L66.796875,13.4232955 L61.2890625,8.03103147 Z" id="Path"></path>
                <path d="M8.90625,40.4993444 L4.6875,44.6295892 C3.984375,45.3179633 3.984375,46.3505245 4.6875,47.0388986 C5.390625,47.7272727 6.4453125,47.7272727 7.1484375,47.0388986 L15.703125,38.6636801 C16.5234375,40.6140734 18.515625,41.9908217 20.7421875,41.9908217 C23.7890625,41.9908217 26.25,39.5815122 26.25,36.5985577 C26.25,33.6156031 23.7890625,31.2062937 20.7421875,31.2062937 C18.3984375,31.2062937 16.5234375,32.583042 15.703125,34.5334353 L7.1484375,26.3876748 C6.4453125,25.6993007 5.390625,25.6993007 4.6875,26.3876748 C3.984375,27.076049 3.984375,28.1086101 4.6875,28.7969843 L8.90625,32.927229 L3.01980663e-14,32.927229 L3.01980663e-14,40.4993444 L8.90625,40.4993444 L8.90625,40.4993444 Z" id="Path"></path>
                <path d="M21.796875,28.9117133 C23.90625,30.9768357 27.421875,30.9768357 29.53125,28.9117133 C31.640625,26.8465909 31.640625,23.4047203 29.53125,21.3395979 C27.890625,19.7333916 25.546875,19.3892045 23.5546875,20.1923077 L23.5546875,8.37521853 C23.5546875,7.45738636 22.734375,6.65428322 21.796875,6.65428322 C20.859375,6.65428322 20.0390625,7.45738636 20.0390625,8.37521853 L20.0390625,14.2263986 L13.7109375,8.03103147 L8.203125,13.4232955 L14.53125,19.6186626 L8.5546875,19.6186626 C7.6171875,19.6186626 6.796875,20.4217657 6.796875,21.3395979 C6.796875,22.2574301 7.6171875,23.0605332 8.5546875,23.0605332 L20.625,23.0605332 C19.8046875,25.0109266 20.15625,27.305507 21.796875,28.9117133 Z" id="Path"></path>
                <path d="M68.203125,52.0869755 C68.203125,51.1691434 67.3828125,50.3660402 66.4453125,50.3660402 L54.375,50.3660402 C55.1953125,48.4156469 54.84375,46.1210664 53.203125,44.5148601 C51.09375,42.4497378 47.578125,42.4497378 45.46875,44.5148601 C43.359375,46.5799825 43.359375,50.0218531 45.46875,52.0869755 C47.109375,53.6931818 49.453125,54.0373689 51.4453125,53.2342657 L51.4453125,65.0513549 C51.4453125,65.9691871 52.265625,66.7722902 53.203125,66.7722902 C54.140625,66.7722902 54.9609375,65.9691871 54.9609375,65.0513549 L54.9609375,59.2001748 L61.2890625,65.395542 L66.796875,60.003278 L60.46875,53.8079108 L66.4453125,53.8079108 C67.3828125,53.8079108 68.203125,53.1195367 68.203125,52.0869755 Z" id="Path"></path>
                <path d="M75,32.927229 L66.09375,32.927229 L70.3125,28.7969843 C71.015625,28.1086101 71.015625,27.076049 70.3125,26.3876748 C69.609375,25.6993007 68.5546875,25.6993007 67.8515625,26.3876748 L59.296875,34.7628934 C58.4765625,32.8125 56.484375,31.4357517 54.2578125,31.4357517 C51.2109375,31.4357517 48.75,33.8450612 48.75,36.8280157 C48.75,39.8109703 51.2109375,42.2202797 54.2578125,42.2202797 C56.6015625,42.2202797 58.4765625,40.8435315 59.296875,38.8931381 L67.8515625,47.2683566 C68.5546875,47.9567308 69.609375,47.9567308 70.3125,47.2683566 C71.015625,46.5799825 71.015625,45.5474213 70.3125,44.8590472 L66.09375,40.7288024 L75,40.7288024 L75,32.927229 Z" id="Path"></path>
            </g>
        </g>
    </g>
</svg>