<?xml version="1.0" encoding="UTF-8"?>
<svg width="145px" height="145px" viewBox="0 0 145 145" version="1.1" xmlns="http://www.w3.org/2000/svg" xmlns:xlink="http://www.w3.org/1999/xlink">
    <!-- Generator: Sketch 57.1 (83088) - https://sketch.com -->
    <title>ic_donate</title>
    <desc>Created with Sketch.</desc>
    <g id="Page-1" stroke="none" stroke-width="1" fill="none" fill-rule="evenodd">
        <g id="ic_donate">
            <path d="M75.4457627,81.4424781 C75.4457627,71.2994651 83.6719653,63.0777248 93.8185616,63.0777248 C98.107613,63.0777248 102.044764,64.5586701 105.170566,67.0208921 C107.243249,59.9378113 105.400291,52.3413017 99.9901494,46.96363 C91.964418,38.9826938 78.9862735,39.0170944 71.0018409,47.0401713 C63.019129,39.0170944 50.0401241,38.9818338 42.0143927,46.96363 C33.9878009,54.9428461 33.801096,67.8043655 42.6269914,76.629836 C52.4801942,86.477004 68.2425655,102.240213 71.0018409,105 C72.2717786,103.730618 76.2898067,99.7117698 81.2181289,94.7847457 C77.6715954,91.4358486 75.4457627,86.7049079 75.4457627,81.4424781 Z" id="Path" fill="#000000" fill-rule="nonzero"></path>
            <path d="M103.810527,69.5329065 C101.069425,67.0844669 97.4648544,65.5826649 93.5,65.5826649 C84.9397944,65.5826649 78,72.5235192 78,81.0830979 C78,85.5547264 79.9044812,89.5725232 82.9339833,92.4011769 C85.7036654,94.987325 89.411298,96.5826649 93.5,96.5826649 C102.061072,96.5826649 109,89.6435427 109,81.0830979 C109,76.4884844 106.988127,72.3719533 103.810527,69.5329065 Z M94.6104446,88.9317176 L94.6104446,91.5826649 L92.1930811,91.5826649 L92.1930811,89.1124836 C90.5408845,89.0605891 88.9375988,88.5719153 88,88.0313469 L88.152536,87.4112069 L88.7402968,85.0197324 C89.0859898,85.2177967 89.4830807,85.4072118 89.9116736,85.5758691 C90.7680304,85.9105891 91.7661462,86.1527637 92.834727,86.1527637 C94.2398817,86.1527637 95.2272205,85.5603008 95.2272205,84.5570059 C95.2272205,83.6410668 94.5026746,83.0416846 92.91514,82.4414375 C92.805712,82.4007868 92.705403,82.3592711 92.587685,82.3177555 C89.9481496,81.3914375 88.148391,80.1044523 88.148391,77.6083238 C88.148391,75.3189087 89.6778956,73.5423848 92.3166021,73.0277637 L92.3166021,70.5826649 L94.7339656,70.5826649 L94.7339656,72.8469976 C96.3861622,72.8988922 97.496193,73.2837769 98.3351408,73.6963387 L97.594844,76.604164 C96.9780681,76.2953914 95.8182973,75.7037934 94.0434087,75.7037934 C92.4392941,75.7037934 91.9211692,76.4493453 91.9211692,77.1698148 C91.9211692,77.9932085 92.784987,78.5597242 94.8815275,79.3571706 C95.1368595,79.4497159 95.3606894,79.5500454 95.5894934,79.6486451 C98.0151469,80.6934556 99,82.0556879 99,84.1954738 C99.0016567,86.4866187 97.472981,88.4170965 94.6104446,88.9317176 Z" id="Shape" fill="#000000" fill-rule="nonzero"></path>
        </g>
    </g>
</svg>