<?xml version="1.0" encoding="UTF-8"?>
<svg width="145px" height="145px" viewBox="0 0 145 145" version="1.1" xmlns="http://www.w3.org/2000/svg" xmlns:xlink="http://www.w3.org/1999/xlink">
    <!-- Generator: Sketch 57.1 (83088) - https://sketch.com -->
    <title>ic_support</title>
    <desc>Created with Sketch.</desc>
    <g id="Page-1" stroke="none" stroke-width="1" fill="none" fill-rule="evenodd">
        <g id="ic_support">
            <path d="M71.1730769,35.0003767 C70.4774359,35.0786596 69.9980171,35.3020196 69.7329658,35.6419605 C69.4718889,35.9768491 69.3789915,36.4900687 69.5151624,37.2023201 L73.9135128,40.2124769 C74.5190427,40.6290794 73.8692393,41.5000501 73.2617265,41.0860926 L68.6569487,37.9357881 L68.6535299,37.9325127 L68.6466923,37.9292372 L66.3451111,36.354867 C65.6270256,36.6860298 65.0154615,37.0185437 64.6400598,37.4745251 C64.2536325,37.9438784 64.0276923,38.5880253 63.9476325,39.5020598 L70.257453,43.8203022 C70.834359,44.2404913 70.2098462,45.0797476 69.6072906,44.6939179 L63.0178889,40.1841362 L63.0144701,40.1824985 L62.3740598,39.7433529 C61.1667521,40.0991797 59.9863419,41.4294072 59.6417521,43.5118873 L65.9905983,47.8566035 C66.6006581,48.2724772 65.947094,49.1485166 65.3388034,48.7302191 L58.687641,44.1783891 L58.6859316,44.1767514 L57.8179658,43.5834392 C56.7088034,43.9362035 55.9223761,44.4662752 55.4302393,45.1640491 C54.9422564,45.8559355 54.7271624,46.7315 54.7215641,47.7350603 L65.9791368,55.4403065 L69.8394786,58.0829596 C69.8394786,58.0829596 69.8738376,58.1059695 69.9061453,58.1359397 C69.9223846,58.1509248 69.941188,58.1689397 69.9663162,58.2013665 C69.9788803,58.217498 70.0083675,58.2618801 70.0085385,58.2621258 C70.0086667,58.2623797 70.0523846,58.3615434 70.0523846,58.3617891 C70.0525043,58.3620429 70.0783675,58.5157181 70.0783675,58.5159638 C70.0783675,58.5162094 70.0427265,58.713497 70.042641,58.7137345 C70.042547,58.713972 69.9323077,58.8879221 69.9321111,58.8881432 C69.9318889,58.8883643 69.8024274,58.9876099 69.8020769,58.9878065 C69.801735,58.9879866 69.7247265,59.0248189 69.6948034,59.0345633 C69.6648034,59.0443896 69.6399316,59.0506948 69.6183932,59.0547891 C69.5752308,59.0629777 69.5471111,59.0635509 69.5224957,59.0641241 C69.3259145,59.0690372 69.315547,59.0428337 69.1860342,59.0095881 C68.9270171,58.9431787 68.4200342,58.7925005 67.3168205,58.4318506 C67.2232821,58.4012253 67.2227521,58.3061149 67.1510256,58.2465347 C67.1476068,58.2555422 67.1450427,58.2547233 67.1412821,58.2636489 C66.9737009,58.6814878 66.8265897,59.2021918 66.710547,59.704103 C66.4820855,60.6921623 66.3745726,61.570994 66.3708376,61.5992692 L70.3075726,62.6317189 C74.9681795,63.854504 87.0842821,67.7791784 87.8408462,68.0244675 L94.1116752,57.6282883 L92.5187692,52.0004045 C92.0490598,50.3407256 90.4929402,48.3699787 88.3869829,46.4239122 C86.2810855,44.4778866 83.6430769,42.5421541 81.0645641,40.8334419 C76.0491453,37.5098424 71.4308632,35.1327943 71.1723333,35 L71.1730769,35.0003767 Z M54.8539829,48.9579682 L50.1646838,50.3470308 C48.4705897,50.9151385 46.5308547,52.5410558 44.6561795,54.6933027 C42.7814872,56.8455496 40.9558547,59.5065779 39.3622222,62.0933357 C36.2628462,67.1242308 34.1201453,71.7071119 34,71.9647166 C34.1314701,72.6238077 34.3991368,73.0673179 34.7720684,73.2961561 C35.1392051,73.5214404 35.6796154,73.5734871 36.4104786,73.3927077 L39.2305641,68.9716903 C39.6252821,68.3810231 40.5556667,68.9268169 40.1863077,69.5322973 L37.236188,74.1588727 L37.2310598,74.1682077 L37.2293504,74.1698454 L35.7551026,76.4807953 C36.1516838,77.1438005 36.5420684,77.7025241 37.0440513,78.0287 C37.5606923,78.3643993 38.2477863,78.533469 39.2058462,78.5441469 L43.2482308,72.2046012 C43.638094,71.5934625 44.5938376,72.1540777 44.2039744,72.7652082 L39.5715641,80.0328727 C40.0289744,81.1607112 41.4982308,82.1920963 43.6903419,82.3718521 L47.7571111,75.9933779 C48.1469744,75.3822392 49.1043419,75.9428543 48.7144786,76.5539849 L43.8951453,84.111296 C44.3420855,85.1455471 44.9523162,85.8573645 45.7139744,86.2774308 C46.4686923,86.6936566 47.3940513,86.8356303 48.4381624,86.7695156 L56.0353162,74.6946355 C56.7520513,73.949597 57.4953333,72.5684938 58.1255897,71.5801479 C58.1255897,71.5801479 58.1471282,71.5461653 58.1760171,71.5131653 C58.1903761,71.4966243 58.2108034,71.4772174 58.2426838,71.4508501 C58.2585812,71.4376665 58.3026838,71.4058129 58.3028547,71.4056491 C58.303094,71.4055345 58.4001197,71.3575002 58.4003761,71.3574184 C58.4006239,71.357361 58.5594103,71.3216342 58.5596667,71.3216342 C58.5599145,71.3216342 58.769094,71.3402223 58.7693419,71.3403042 C58.7695983,71.3403779 58.957641,71.4351117 58.9578889,71.4353 C58.9581368,71.4354801 59.0714444,71.5517744 59.0716752,71.5520938 C59.0718547,71.5524213 59.1162051,71.6207141 59.1285983,71.6486372 C59.140906,71.6765603 59.1473162,71.6998978 59.1529573,71.7202873 C59.1644103,71.7609846 59.1683419,71.7902998 59.1708205,71.8137191 C59.189453,72.0012459 59.1648376,72.0114898 59.1399658,72.1376268 C59.089453,72.3899089 58.9680342,72.8841392 58.6718462,73.9642792 C58.5678889,74.3433779 58.6544103,74.5812236 58.8831453,74.858137 C59.1119145,75.1350422 59.514812,75.404897 59.957547,75.6149588 C60.6514359,75.9441891 61.1325983,76.0260422 61.4285385,76.0914772 L61.9681709,74.9733749 L62.829641,70.8046233 C63.7633932,66.2843439 66.2574957,57.4695362 66.4299145,56.8610506 L54.8553846,48.9579682 L54.8539829,48.9579682 Z M96.5863248,56.9388504 C96.3402137,56.9331184 96.0851282,56.9421258 95.8240085,56.9637437 L86.4746667,72.3462146 L86.4695385,72.3445769 C86.4678291,72.3462146 86.4451795,72.3881402 86.4451795,72.3881402 C86.0301282,72.9420079 85.1486068,72.3955099 85.5056923,71.8057352 L85.5544957,71.7247501 C85.9558718,70.7809256 86.615453,69.1930524 86.2030342,68.3564246 L83.0464872,67.4298615 L82.5653675,68.9980084 L81.7900513,73.2150318 C80.937812,77.8505164 79.3860684,86.901663 79.3860684,86.901663 C79.3657265,87.0181784 79.3054701,87.1246955 79.2154017,87.2053285 C78.6489573,87.7156494 77.8237436,88.1350769 77.2649145,88.5180816 C77.0162735,88.6884943 76.8697778,88.83516 76.8049231,88.9136231 L87.0092308,97.8179566 C87.084359,97.7782419 87.2727179,97.6145357 87.4659744,97.3756993 C87.8565726,96.8929494 88.2746239,96.1716906 88.769547,95.6689524 C88.828265,95.6090119 88.9004615,95.5639419 88.9808547,95.535028 L94.9005897,93.4140615 C96.5818376,92.8119548 98.4845214,91.146765 100.311573,88.9572273 C102.138598,86.7676896 103.906487,84.0696079 105.442983,81.4513077 C108.431427,76.3588181 110.471513,71.7351005 110.585769,71.4755878 C110.439863,70.8193136 110.162308,70.380995 109.784444,70.1597149 C109.412145,69.9417102 108.872094,69.901365 108.14441,70.0973998 L105.423479,74.5729203 C105.040538,75.1654382 104.105299,74.6437516 104.454735,74.0325556 L107.302453,69.3468094 L107.311,69.3374744 L108.734855,66.9953834 C108.32388,66.3406814 107.920709,65.7898844 107.411769,65.4739524 C106.888034,65.1488246 106.197872,64.9920295 105.240231,65.0005457 L101.339248,71.4195124 C100.963145,72.0383402 99.9929231,71.4980409 100.368889,70.8791886 L104.443786,64.1768067 L104.448915,64.1686181 L104.842265,63.5208027 C104.360812,62.4019717 102.869393,61.4000246 100.673085,61.2643561 L96.7461026,67.7238072 C96.3700513,68.3428315 95.4011538,67.8023357 95.777359,67.1834424 L99.891265,60.4172141 L100.429282,59.5311355 C99.9597521,58.5061538 99.3356325,57.8054402 98.5649402,57.4008258 C97.991265,57.0996578 97.3251624,56.9546625 96.586812,56.9383263 L96.5863248,56.9388504 Z M57.981265,74.2850097 C57.3197265,75.4358171 57.3495128,75.355831 57.3197265,75.4358171 L50.1874359,86.771006 L50.8473504,91.3088171 C51.0955214,93.0119037 52.3797436,95.1525965 54.2135726,97.3369181 C56.0474017,99.5212315 58.4106752,101.75945 60.7444615,103.765228 C65.2827863,107.665689 69.5504701,110.580588 69.7914786,110.744991 C70.4921966,110.751353 70.9987094,110.587696 71.306359,110.282294 C71.6091966,109.981675 71.7686752,109.483235 71.7273419,108.760871 L71.7273419,108.759233 L67.758094,105.242973 C67.2390684,104.755981 67.9721795,103.996556 68.5187863,104.455002 L72.6733333,108.136336 L72.6767521,108.139611 L72.6818803,108.144525 L74.7591453,109.985188 C75.5156068,109.743067 76.1649658,109.484668 76.5974872,109.077311 C77.0425641,108.658121 77.3505983,108.047015 77.5499744,107.149448 L71.8577949,102.10708 C71.3356838,101.620891 72.0709829,100.857715 72.6184872,101.317562 L78.5626068,106.584165 L79.1444957,107.099612 C80.3888034,106.891949 81.7329829,105.713284 82.3481795,103.689246 L76.6218632,98.6157377 C76.0997521,98.1295486 76.8334274,97.3663643 77.3809316,97.8262189 L83.3819402,103.14265 L83.3965556,103.156652 L83.4079231,103.167543 L84.1686154,103.838721 C85.3154103,103.622386 86.1634188,103.191659 86.743265,102.558665 C87.3183504,101.930862 87.6460855,101.087274 87.7835214,100.091984 L74.1427009,88.005902 C74.1427009,88.005902 74.1122735,87.9802717 74.0841538,87.9466985 C74.0700513,87.9299119 74.0527863,87.9086216 74.0321026,87.8734926 C74.0218462,87.855969 73.9997094,87.8067556 73.9996239,87.8065099 C73.9995556,87.8062479 73.9687692,87.7039888 73.9687692,87.7037268 L73.963641,87.5480045 C73.963641,87.5477588 74.0253504,87.3566945 74.0254359,87.3564653 C74.0255556,87.3562442 74.1584872,87.1962556 74.1587179,87.1960672 C74.1589487,87.1958707 74.2997521,87.1121342 74.3001282,87.1119787 C74.3004957,87.1118558 74.3797009,87.0838099 74.4106581,87.0777504 C74.4415983,87.0711995 74.4683504,87.0695618 74.4903162,87.0684154 C74.5342479,87.0659588 74.5633077,87.0675965 74.5878376,87.0700531 C74.7834359,87.08946 74.7904188,87.1165643 74.914547,87.1650489 C75.1627863,87.2621409 75.2798974,87.1975576 76.3270256,87.6882831 C76.694547,87.8604727 77.1803675,87.6415263 77.1803675,87.6415263 C77.5371453,87.5527538 78.1737692,87.154936 78.475812,86.7803655 C78.9493932,86.1930883 78.6872137,85.8820122 78.8122735,85.6171032 L78.3718205,85.0642427 L74.2757949,83.4369251 C69.7422564,81.6344127 60.8822393,78.2248002 60.8661795,78.2185933 L60.853188,78.2120424 C60.7488974,78.172164 60.6592393,78.1034127 60.5963761,78.0142717 L57.981265,74.2850097 Z" id="Shape" fill="#000000"></path>
        </g>
    </g>
</svg>