<?xml version="1.0" encoding="UTF-8"?>
<svg width="145px" height="145px" viewBox="0 0 145 145" version="1.1" xmlns="http://www.w3.org/2000/svg" xmlns:xlink="http://www.w3.org/1999/xlink">
    <!-- Generator: Sketch 57.1 (83088) - https://sketch.com -->
    <title>ic_vonlunteer</title>
    <desc>Created with Sketch.</desc>
    <g id="Page-1" stroke="none" stroke-width="1" fill="none" fill-rule="evenodd">
        <g id="ic_vonlunteer">
            <path d="M106.297607,54.2199792 C105.372637,52.3784732 103.656574,51.6345536 101.161589,53.1101975 C98.1310956,54.9029218 93.0194195,69.5617969 89.7820247,68.3666474 C87.676501,67.5861415 90.5122641,45.390507 90.7069946,43.1953343 C90.7780538,41.3395059 89.6696727,39.6417515 87.9442554,38.9635293 C86.0489085,38.2865911 83.9642465,39.2737739 83.2828937,41.1708973 C82.0049747,44.2807252 79.6316965,64.6470493 77.5383435,64.5128998 C75.7979395,64.4031412 75.8101101,46.329553 75.8101101,39.3903684 C75.8101101,37.5122762 75.5788677,34 72.158913,34 C70.0168773,34 68.1425961,35.0610001 67.9478656,38.6708396 C67.7044524,42.8904492 68.2643026,63.5860492 65.8788538,63.9641067 C63.493405,64.3421642 59.7326719,50.0125649 59.0267738,47.6100704 C58.1018038,44.5002425 56.4587651,41.40261 52.8684212,42.731909 C49.8987808,43.8538861 49.9231221,48.049105 50.99414,51.8540709 C52.4546188,57.0005312 59.3675522,75.818039 56.5196184,78.1961427 C53.6716846,80.5742464 48.5113259,74.0009238 46.0041705,71.8545328 C43.8743055,70.0252223 40.0162071,69.2813026 38.2149498,71.1106132 C37.0920244,72.4685242 36.7178118,74.2976632 37.2169559,75.9887746 C37.6542424,78.0336465 38.6828574,79.9041877 40.1744257,81.3669476 L49.3145893,91.7574315 C51.3957717,93.8672363 56.0693041,104.343088 60.7671778,108.172445 C66.049243,112.465227 74.6173857,112.2701 81.566831,111.696916 C88.0051087,111.172514 92.8368597,89.4525002 93.3967099,87.4402586 C93.9565601,85.428017 105.372637,61.5738076 106.297607,59.6103476 C107.234131,57.936089 107.234131,55.8942378 106.297607,54.2199792 Z" id="Path" fill="#000000" fill-rule="nonzero"></path>
        </g>
    </g>
</svg>